<svg xmlns="http://www.w3.org/2000/svg" width="24" height="24" viewBox="0 0 24 24" fill="none" stroke="#3B82F6" stroke-width="2" stroke-linecap="round" stroke-linejoin="round">
  <path d="M9 10a1 1 0 0 1 1 -1h4a1 1 0 0 1 1 1v8a1 1 0 0 1 -1 1h-4a1 1 0 0 1 -1 -1v-8z"></path>
  <path d="M15 5v-2"></path>
  <path d="M9 5v-2"></path>
  <path d="M9 5h6"></path>
  <path d="M9 14h6"></path>
  <path d="M12 18v2"></path>
  <path d="M6 9a3 3 0 0 1 0 6"></path>
  <path d="M18 9a3 3 0 0 0 0 6"></path>
</svg>
